<svg xmlns="http://www.w3.org/2000/svg" width="28.468" height="3.453" viewBox="0 0 28.468 3.453">
  <path id="Path_2436" data-name="Path 2436" d="M304.242,222.739a1.562,1.562,0,0,0-.44.061,1.045,1.045,0,0,0-.373.2,1.143,1.143,0,0,0-.284.344,1.738,1.738,0,0,0-.181.526l-.231,1.2a1.5,1.5,0,0,0-.022.526.728.728,0,0,0,.151.349.673.673,0,0,0,.3.192,1.327,1.327,0,0,0,.417.059,1.557,1.557,0,0,0,.44-.059,1.08,1.08,0,0,0,.371-.192,1.181,1.181,0,0,0,.286-.349,1.74,1.74,0,0,0,.18-.526l.027-.139h-.641l-.044.224a.6.6,0,0,1-.183.376.529.529,0,0,1-.326.1.379.379,0,0,1-.288-.1c-.063-.065-.076-.19-.04-.376l.264-1.369a.6.6,0,0,1,.183-.377.529.529,0,0,1,.326-.1.381.381,0,0,1,.289.1c.062.065.075.19.038.377l-.017.093h.645v-.01a1.5,1.5,0,0,0,.021-.526.69.69,0,0,0-.152-.344.64.64,0,0,0-.3-.2,1.329,1.329,0,0,0-.417-.061Zm8.8,0a1.557,1.557,0,0,0-.44.061,1.043,1.043,0,0,0-.372.2,1.162,1.162,0,0,0-.286.344,1.737,1.737,0,0,0-.18.526l-.231,1.2a1.445,1.445,0,0,0-.021.526.714.714,0,0,0,.151.349.669.669,0,0,0,.3.192,1.337,1.337,0,0,0,.418.059,1.555,1.555,0,0,0,.439-.059,1.081,1.081,0,0,0,.371-.192,1.2,1.2,0,0,0,.287-.349,1.736,1.736,0,0,0,.18-.526l.231-1.2a1.473,1.473,0,0,0,.023-.526.7.7,0,0,0-.152-.344.647.647,0,0,0-.3-.2A1.334,1.334,0,0,0,313.041,222.739Zm9.061,0a1.553,1.553,0,0,0-.439.061,1.044,1.044,0,0,0-.372.2,1.142,1.142,0,0,0-.284.344,1.739,1.739,0,0,0-.181.526l-.231,1.2a1.446,1.446,0,0,0-.021.526.715.715,0,0,0,.151.349.667.667,0,0,0,.3.192,1.324,1.324,0,0,0,.417.059,1.556,1.556,0,0,0,.439-.059,1.1,1.1,0,0,0,.373-.192,1.216,1.216,0,0,0,.286-.349,1.769,1.769,0,0,0,.18-.526l.027-.139h-.638l-.048.224a.6.6,0,0,1-.184.376.526.526,0,0,1-.326.1.38.38,0,0,1-.288-.1c-.062-.065-.075-.19-.039-.376l.263-1.369a.6.6,0,0,1,.184-.377.526.526,0,0,1,.326-.1.38.38,0,0,1,.288.1c.062.065.075.19.039.377l-.018.093h.643v-.01a1.473,1.473,0,0,0,.023-.526.69.69,0,0,0-.154-.344.628.628,0,0,0-.3-.2,1.318,1.318,0,0,0-.417-.061Zm-24.056.046-.646,3.36h.94a1.828,1.828,0,0,0,.476-.056,1.247,1.247,0,0,0,.388-.176,1.054,1.054,0,0,0,.287-.3,1.344,1.344,0,0,0,.192-.714.558.558,0,0,0-.049-.209.463.463,0,0,0-.119-.176,1.306,1.306,0,0,0-.192-.168.992.992,0,0,0,.549-.7.654.654,0,0,0-.158-.651,1.121,1.121,0,0,0-.759-.214Zm3.2,0-1.478,3.36h.618l.318-.707h.889l.027.707h.616l-.164-3.36Zm4.576,0-.646,3.36h.643l.2-1.028.325-.381.4,1.409h.721l-.578-2.005,1.127-1.354h-.7l-1.1,1.386h-.009l.267-1.386Zm3.689,0-.109.568h.75l-.537,2.792h.643l.537-2.792h.75l.109-.568Zm6.4,0-.646,3.36h.94a1.839,1.839,0,0,0,.476-.056,1.259,1.259,0,0,0,.388-.176,1.072,1.072,0,0,0,.286-.3,1.31,1.31,0,0,0,.192-.714.561.561,0,0,0-.048-.209.478.478,0,0,0-.119-.176,1.378,1.378,0,0,0-.192-.168,1,1,0,0,0,.549-.7.652.652,0,0,0-.159-.651,1.122,1.122,0,0,0-.758-.214Zm3.2,0-1.479,3.36h.619l.318-.707h.889l.026.707h.615l-.164-3.36Zm4.576,0-.646,3.36h.643l.2-1.028.325-.381.4,1.409h.72l-.577-2.005,1.126-1.354h-.7l-1.1,1.386h-.008l.267-1.386Zm-10.748.521a.38.38,0,0,1,.288.1c.062.065.075.19.039.377L313,225.15a.6.6,0,0,1-.184.376.526.526,0,0,1-.326.1.38.38,0,0,1-.288-.1c-.062-.065-.075-.19-.039-.376l.263-1.369a.6.6,0,0,1,.184-.377.526.526,0,0,1,.326-.1Zm-14.345.01h.256a.378.378,0,0,1,.314.111.336.336,0,0,1,.055.294.445.445,0,0,1-.184.283.605.605,0,0,1-.371.112h-.223Zm17.861,0h.257a.376.376,0,0,1,.313.111.337.337,0,0,1,.056.294.446.446,0,0,1-.186.283.6.6,0,0,1-.37.112H316.3Zm-14.945.2h.013l.051,1.359h-.646Zm17.862,0h0l.05,1.359h-.633Zm-21.033,1.135h.224a.535.535,0,0,1,.381.119.357.357,0,0,1,.086.357.571.571,0,0,1-.607.489h-.27Zm17.862,0h.224a.54.54,0,0,1,.381.119.357.357,0,0,1,.085.357.569.569,0,0,1-.606.489h-.27Z" transform="translate(-297.4 -222.739)" fill="#610060"/>
</svg>
