<svg id="Group_1236" data-name="Group 1236" xmlns="http://www.w3.org/2000/svg" width="28" height="28" viewBox="0 0 28 28">
  <circle id="Ellipse_277" data-name="Ellipse 277" cx="14" cy="14" r="14" fill="#fff"/>
  <g id="noun_Love_1033573" transform="translate(6.426 7.55)">
    <path id="Path_2496" data-name="Path 2496" d="M-931.982,961.642a4.244,4.244,0,0,0-3-1.242,4.272,4.272,0,0,0-3,1.242l-.7.7-.7-.7a4.244,4.244,0,0,0-3-1.242,4.324,4.324,0,0,0-4.127,3.1,3.929,3.929,0,0,0,.973,3.976l6.342,6.342a.7.7,0,0,0,1.007,0l6.191-6.191A4.193,4.193,0,0,0-931.982,961.642Z" transform="translate(946.716 -960.4)" fill="#ff0035"/>
  </g>
</svg>
