<svg xmlns="http://www.w3.org/2000/svg" xmlns:xlink="http://www.w3.org/1999/xlink" width="15.221" height="14.527" viewBox="0 0 15.221 14.527">
  <defs>
    <radialGradient id="radial-gradient" cx="0.17" cy="1.012" r="1.096" gradientTransform="translate(0.023) scale(0.954 1)" gradientUnits="objectBoundingBox">
      <stop offset="0.355" stop-color="#ffc200"/>
      <stop offset="0.508" stop-color="#ffbc06"/>
      <stop offset="0.725" stop-color="#ffae18"/>
      <stop offset="0.978" stop-color="#ff9736"/>
      <stop offset="1" stop-color="#ff953a"/>
    </radialGradient>
  </defs>
  <path id="Path_6586" data-name="Path 6586" d="M93.469,86.079c.067.458-.217.662-.632.455L89.4,84.8a1.908,1.908,0,0,0-1.507-.008L84.44,86.5c-.415.2-.7,0-.627-.462l.585-3.8a1.914,1.914,0,0,0-.46-1.435L81.253,78.04c-.323-.333-.214-.665.243-.739l3.8-.619a1.911,1.911,0,0,0,1.224-.882l1.794-3.406c.216-.41.565-.407.777,0l1.763,3.421a1.909,1.909,0,0,0,1.216.891l3.793.652c.458.079.564.414.238.742l-2.711,2.735a1.922,1.922,0,0,0-.472,1.432Z" transform="translate(-81.067 -72.088)" fill="url(#radial-gradient)"/>
</svg>
